<?xml version="1.0" encoding="utf-8"?>
<!-- Generator: Adobe Illustrator 22.0.1, SVG Export Plug-In . SVG Version: 6.00 Build 0)  -->
<svg version="1.1" id="Camada_1" xmlns="http://www.w3.org/2000/svg" xmlns:xlink="http://www.w3.org/1999/xlink" x="0px" y="0px"
	 viewBox="0 0 18 18" style="enable-background:new 0 0 18 18;" xml:space="preserve">
<style type="text/css">
	.st0{display:none;}
	.st1{display:inline;}
</style>
<path class="st0" d="M6.1,11.2c-0.1,0-0.1,0-0.2,0c-0.3,0.1-0.7,0.2-1,0.2s-0.7-0.1-1-0.2c-0.1,0-0.1,0-0.2,0
	c-1.6,0-2.9,1.2-2.9,2.6c0,0.6,0.6,1.1,1.2,1.1h5.7C8.4,15,9,14.5,9,13.9C9,12.4,7.7,11.2,6.1,11.2z M4.9,10.5c1.4,0,2.4-1,2.4-2.2
	S6.3,6,4.9,6S2.5,7,2.5,8.2S3.6,10.5,4.9,10.5z M15.9,3H6.1C5.5,3,4.9,3.5,4.9,4.2v1.1c0.6,0,1.1,0.2,1.6,0.4V4.5h9v6.8h-1.6V9.8
	h-3.3v1.5H8.7c0.5,0.4,0.8,0.9,1,1.5h6.2c0.7,0,1.2-0.5,1.2-1.2V4.2C17.2,3.5,16.6,3,15.9,3z"/>
<g class="st0">
	<path class="st1" d="M11.1,11.1l-2.5,2.4l-2.5-2.4c-1.8,0.1-3.3,1.6-3.3,3.4v0.2c0,0.7,0.5,1.2,1.2,1.2h9.1c0.7,0,1.2-0.5,1.2-1.2
		v-0.2C14.4,12.7,13,11.2,11.1,11.1L11.1,11.1z M3.2,5l0.4,0v1.5C3.2,6.7,3.1,6.8,3.1,7.1c0,0.2,0.1,0.4,0.3,0.5L3,9.1
		c0,0.2,0.1,0.4,0.2,0.4h1.1c0.1,0,0.2-0.2,0.2-0.4L4,7.6c0.2-0.1,0.3-0.3,0.3-0.5c0-0.2-0.1-0.4,0-0.5V5.2l1.3,0.4
		C5.5,6.1,5.3,6.5,5.3,7.1c0,1.8,1.5,3.2,3.2,3.2s3.2-1.5,3.2-3.2c0-0.5-0.1-1-0.4-1.4L13.9,5c0.5-0.1,0.5-0.7,0-0.8L9.1,3.1
		C8.8,3,8.4,3,8.1,3.1L3.2,4.2C2.8,4.3,2.8,4.9,3.2,5z"/>
</g>
<g>
	<path d="M11.4,5l0.4,5.9l-0.3,0c-0.9,0-1.8,0.2-2.5,0.7c-0.8-0.5-1.6-0.7-2.5-0.7c-1.1,0-2,0.3-3,0.7l0.8-6.1C4.9,5.2,5.7,5,6.5,5
		c1,0,1.8,0.3,2.5,1C9.7,5.3,10.5,5,11.4,5z M15.9,13.1c-0.6,0-1.2-0.1-1.7-0.4c-0.8-0.4-1.7-0.6-2.7-0.6c-1,0-1.8,0.3-2.5,1
		c-0.7-0.7-1.6-1-2.5-1c-0.9,0-1.8,0.2-2.7,0.6c-0.5,0.2-1.1,0.4-1.7,0.4h0l1-8.3C4.1,4.3,5.3,4,6.4,4C7.3,4,8.2,4.2,9,4.7
		C9.8,4.2,10.7,4,11.6,4c1.1,0,2.3,0.3,3.3,0.8L15.9,13.1z M14.9,11.9L14,5.3c-0.8-0.3-1.7-0.5-2.5-0.5c-0.9,0-1.8,0.3-2.5,0.9
		C8.3,5.1,7.4,4.8,6.5,4.8C5.6,4.8,4.7,4.9,4,5.3l-0.8,6.6c1.2-0.5,2-0.8,3.3-0.8c0.9,0,1.7,0.2,2.5,0.7c0.8-0.5,1.6-0.7,2.5-0.7
		C12.8,11.1,13.7,11.5,14.9,11.9L14.9,11.9z"/>
</g>
</svg>
