<?xml version="1.0" encoding="utf-8"?>
<!-- Generator: Adobe Illustrator 22.0.1, SVG Export Plug-In . SVG Version: 6.00 Build 0)  -->
<svg version="1.1" id="Camada_1" xmlns="http://www.w3.org/2000/svg" xmlns:xlink="http://www.w3.org/1999/xlink" x="0px" y="0px"
	 viewBox="0 0 18 18" style="enable-background:new 0 0 18 18;" xml:space="preserve">
<path d="M6.1,11.2c-0.1,0-0.1,0-0.2,0c-0.3,0.1-0.7,0.2-1,0.2s-0.7-0.1-1-0.2c-0.1,0-0.1,0-0.2,0c-1.6,0-2.9,1.2-2.9,2.6
	c0,0.6,0.6,1.1,1.2,1.1h5.7C8.4,15,9,14.5,9,13.9C9,12.4,7.7,11.2,6.1,11.2z M4.9,10.5c1.4,0,2.4-1,2.4-2.2S6.3,6,4.9,6
	S2.5,7,2.5,8.2S3.6,10.5,4.9,10.5z M15.9,3H6.1C5.5,3,4.9,3.5,4.9,4.2v1.1c0.6,0,1.1,0.2,1.6,0.4V4.5h9v6.8h-1.6V9.8h-3.3v1.5H8.7
	c0.5,0.4,0.8,0.9,1,1.5h6.2c0.7,0,1.2-0.5,1.2-1.2V4.2C17.2,3.5,16.6,3,15.9,3z"/>
</svg>
